<?xml version="1.0" standalone="no"?><!DOCTYPE svg PUBLIC "-//W3C//DTD SVG 1.1//EN" "http://www.w3.org/Graphics/SVG/1.1/DTD/svg11.dtd"><svg t="1566571588058" class="icon" viewBox="0 0 1024 1024" version="1.1" xmlns="http://www.w3.org/2000/svg" p-id="19326" xmlns:xlink="http://www.w3.org/1999/xlink" width="16" height="16"><defs><style type="text/css"></style></defs><path d="M944.64 322.56l-92.672-92.672L706.56 365.056v494.592h271.872V197.632zM459.264 493.568L375.808 439.808v419.328h271.872v-440.32l-70.144 64.512c-17.92 16.896-41.472 25.6-66.048 25.6-18.432 0-36.352-5.12-52.224-15.36M317.952 402.432L248.832 358.4 45.568 535.04v324.608h272.384zM45.568 926.72h932.864v97.28H45.568z" p-id="19327" fill="#bfcbd9"></path><path d="M110.08 412.16l133.632-116.736 247.296 159.232c6.656 4.096 13.824 6.144 20.992 6.144 9.216 0 18.944-3.584 26.112-10.24l315.392-291.328L914.432 220.16l58.88-220.16-219.648 58.88 45.056 45.056-290.816 268.8-246.784-158.72c-14.848-9.216-33.792-8.192-46.592 3.584L58.88 353.28c-15.872 14.336-17.92 38.912-3.584 54.784 14.336 16.384 38.4 17.92 54.784 4.096" p-id="19328" fill="#bfcbd9"></path></svg>