<?xml version="1.0" standalone="no"?><!DOCTYPE svg PUBLIC "-//W3C//DTD SVG 1.1//EN" "http://www.w3.org/Graphics/SVG/1.1/DTD/svg11.dtd"><svg t="1566292457683" class="icon" viewBox="0 0 1024 1024" version="1.1" xmlns="http://www.w3.org/2000/svg" p-id="5551" xmlns:xlink="http://www.w3.org/1999/xlink" width="16" height="16"><defs><style type="text/css"></style></defs><path d="M912.2 609.6s1-378.8 1-382.1C913.2 134.3 740.7 64 512 64s-401.2 70.3-401.2 163.6c0 3.3 1 372.6 1 382.4h-0.5c0.3 97.2 0.5 196 0.5 196.4C122.3 899.7 279.3 960 512 960s389.7-60.3 400.2-154.4c0 0 0.3-98.6 0.5-195.6h-0.6c0-0.1 0.1-0.2 0.1-0.4z m-94.1 194.8c0 41.5-147 87.1-314.1 87.1-167.1 0-281.1-45.6-314.1-87.1v-96c12.5 4.6 24.7 8.9 36.8 13 28.4 11.1 61.6 20.1 98.8 27.1 51.7 10.6 107.5 16.3 178.5 16.3 40.8 0 79.3-2.1 115.5-5.6 7.9-0.7 15.7-1.5 23.3-2.4 1.6-0.2 3.1-0.4 4.6-0.6 68.8-8.4 126.8-23.3 170.7-43.7v91.9z m0-196c0 1.8-0.6 3.7-1.2 5.5-0.2 0.9-0.3 1.7-0.7 2.6-17.3 39.1-156 79.1-312.3 79.1-154 0-262.7-38.8-304.7-77.3-1.2-1.1-2.5-2.2-3.5-3.4-2.1-2.2-4.2-4.3-5.9-6.5v-96c99.2 36.5 179.8 56.4 314.1 56.4s248-19.9 314.1-56.4v96z m0-195.2c0 41.5-147.1 87.1-314.1 87.1s-281.1-45.7-314.1-87.1v-82.7c99.2 38.7 184.8 60.6 314.1 60.6s248-21.9 314.1-60.6v82.7zM512 309c-194.4 0-318.5-52.3-318.5-88.3s124.1-88.3 318.5-88.3 318.5 52.3 318.5 88.3c0 36.1-124.1 88.3-318.5 88.3z m240.8 130.6c9.9-0.3 17.6-14 17.1-30.8-0.4-16.8-8.8-30.1-18.7-29.9-9.9 0.3-17.6 14-17.1 30.8s8.8 30.2 18.7 29.9z m0 198.4c9.9-0.3 17.6-14 17.1-30.8-0.4-16.8-8.8-30.1-18.7-29.9-9.9 0.3-17.6 14-17.1 30.8 0.4 16.8 8.8 30.1 18.7 29.9z m0 198.4c9.9-0.3 17.6-14 17.1-30.8-0.4-16.8-8.8-30.1-18.7-29.9-9.9 0.3-17.6 14-17.1 30.8 0.4 16.8 8.8 30.1 18.7 29.9z" p-id="5552" fill="#bfcbd9"></path></svg>