<?xml version="1.0" standalone="no"?><!DOCTYPE svg PUBLIC "-//W3C//DTD SVG 1.1//EN" "http://www.w3.org/Graphics/SVG/1.1/DTD/svg11.dtd"><svg t="1566292835216" class="icon" viewBox="0 0 1024 1024" version="1.1" xmlns="http://www.w3.org/2000/svg" p-id="9914" xmlns:xlink="http://www.w3.org/1999/xlink" width="16" height="16"><defs><style type="text/css"></style></defs><path d="M226.208487 810.233382l0-92.596931c0-25.590841-20.730137-46.296419-46.298466-46.296419l-92.596931 0c-25.568329 0-46.298466 20.705578-46.298466 46.296419l0 92.596931c0 25.546839 20.730137 46.298466 46.298466 46.298466l92.596931 0C205.47835 856.531847 226.208487 835.779198 226.208487 810.233382zM145.186172 810.233382l-23.149233 0c-19.192108 0-34.723849-15.553231-34.723849-34.724873l0-23.14821c0-19.170618 15.530718-34.724873 34.723849-34.724873l23.149233 0c19.193131 0 34.723849 15.553231 34.723849 34.724873l0 23.14821C179.910021 794.679128 164.379303 810.233382 145.186172 810.233382zM851.236749 0 203.059254 0c-63.908542 0-115.746164 51.825342-115.746164 115.746164l0 17.545608c16.553001-11.08036 36.456307-17.545608 57.873082-17.545608l23.149233 0c3.662413 0 7.280824 0.191358 10.846022 0.559748 19.47147-14.870686 43.792389-23.708981 70.176292-23.708981l395.520125 0c-1.280156 3.621481-1.983167 7.515161-1.983167 11.574616l0 821.806975L249.357719 925.978523c-14.672164 0-28.704762-2.736321-41.62298-7.718799-12.154831 4.972245-25.454742 7.718799-39.398312 7.718799l-23.149233 0c-21.355377 0-41.207517-6.433526-57.731866-17.458627 2.966565 61.286832 53.603849 110.055558 115.605971 110.055558l648.177496 0c63.933101 0 115.746164-51.815109 115.746164-115.745141L966.98496 115.746164C966.982914 51.825342 915.168828 0 851.236749 0zM874.385982 810.233382c0 63.931055-51.814086 115.745141-115.745141 115.745141l-23.149233 0L735.491609 104.171548c0-4.059456-0.704035-7.953136-1.983167-11.574616l25.133424 0c63.932078 0 115.745141 51.825342 115.745141 115.746164L874.387006 810.233382zM87.31309 370.398981l92.596931 0c25.568329 0 46.298466-20.753673 46.298466-46.298466l0-92.608188c0-25.568329-20.730137-46.298466-46.298466-46.298466l-92.596931 0c-25.568329 0-46.298466 20.730137-46.298466 46.298466l0 92.608188C41.014624 349.645308 61.744761 370.398981 87.31309 370.398981zM87.31309 266.216177c0-19.181875 15.530718-34.723849 34.723849-34.723849l23.149233 0c19.193131 0 34.723849 15.541975 34.723849 34.723849l0 23.159466c0 19.170618-15.530718 34.724873-34.723849 34.724873l-23.149233 0c-19.192108 0-34.723849-15.553231-34.723849-34.724873L87.31309 266.216177zM87.31309 601.890286l92.596931 0c25.568329 0 46.298466-20.751626 46.298466-46.298466l0-92.595908c0-25.590841-20.730137-46.298466-46.298466-46.298466l-92.596931 0c-25.568329 0-46.298466 20.707624-46.298466 46.298466l0 92.595908C41.014624 581.13866 61.744761 601.890286 87.31309 601.890286zM87.31309 497.718739c0-19.192108 15.530718-34.722826 34.723849-34.722826l23.149233 0c19.193131 0 34.723849 15.530718 34.723849 34.722826l0 23.149233c0 19.170618-15.530718 34.723849-34.723849 34.723849l-23.149233 0c-19.192108 0-34.723849-15.553231-34.723849-34.723849L87.31309 497.718739z" p-id="9915" fill="#bfcbd9"></path></svg>