<?xml version="1.0" standalone="no"?><!DOCTYPE svg PUBLIC "-//W3C//DTD SVG 1.1//EN" "http://www.w3.org/Graphics/SVG/1.1/DTD/svg11.dtd"><svg t="1566267440421" class="icon" viewBox="0 0 1024 1024" version="1.1" xmlns="http://www.w3.org/2000/svg" p-id="4728" xmlns:xlink="http://www.w3.org/1999/xlink" width="16" height="16"><defs><style type="text/css"></style></defs><path d="M989.673 289.65L750.727 50.954a56.355 56.355 0 0 0-79.624 0L432.193 289.65a56.214 56.214 0 0 0 0 79.625L471.953 409l238.944-238.698 159.285 159.144-238.945 238.697 39.866 39.795a56.355 56.355 0 0 0 79.624 0l238.91-238.698a56.32 56.32 0 0 0 0-79.59zM551.648 647.699l-238.91 238.698-159.32-159.144 238.945-238.698-39.866-39.795a56.355 56.355 0 0 0-79.624 0L33.963 687.492a56.32 56.32 0 0 0 0 79.625l238.91 238.698a56.355 56.355 0 0 0 79.624 0l238.945-238.698a56.214 56.214 0 0 0 0-79.625l-39.759-39.724-0.035-0.035z m-199.15 39.724a56.32 56.32 0 0 0 79.695 0l238.945-238.698a56.143 56.143 0 0 0 0-79.448 56.32 56.32 0 0 0-79.696 0L352.497 607.974a56.143 56.143 0 0 0 0 79.448z" p-id="4729" fill="#bfcbd9"></path></svg>