<?xml version="1.0" standalone="no"?><!DOCTYPE svg PUBLIC "-//W3C//DTD SVG 1.1//EN" "http://www.w3.org/Graphics/SVG/1.1/DTD/svg11.dtd"><svg t="1566266286296" class="icon" viewBox="0 0 1024 1024" version="1.1" xmlns="http://www.w3.org/2000/svg" p-id="2368" xmlns:xlink="http://www.w3.org/1999/xlink" width="16" height="16"><defs><style type="text/css"></style></defs><path d="M720.4 183.5L511.8 63.2 303.2 183.5v240.9l208.6 120.4 208.6-120.4V183.5zM65 596.7v240.9L273.6 958l208.6-120.4V596.7L273.5 476.2 65 596.7z m891.3 79.2c-2.4-13.1-10.3-21.5-20.2-21.4H934c-28.4-0.2-51.3-23.3-51.2-51.7 0-9.2 4.4-19.6 4.5-19.7 5-11.7 1.2-25.3-9.1-32.8l-52.5-29.6c-11.2-4.9-24.2-2.4-32.8 6.2-5.6 6-25.3 23-40.4 23-15.2 0-35-17.3-40.7-23.3-8.3-8.6-21-11.2-32-6.7l-54.4 30c-10.7 7.4-14.8 21.3-9.7 33.3 2.7 6.3 4.2 12.9 4.5 19.7 0.1 28.4-22.8 51.5-51.2 51.7h-1.8c-10.1 0-17.9 8.4-20.4 21.4-0.2 0.9-4.4 23.6-4.4 41.3 0 17.7 4.2 40.4 4.4 41.3 2.4 13.1 10.3 21.4 20.1 21.4h2.2c28.2 0 51.2 23.2 51.2 51.7-0.3 6.8-1.8 13.5-4.5 19.7-5 11.7-1.2 25.3 9.1 32.7l51.5 29.1c11.2 5 24.4 2.4 32.9-6.5 7.2-8 26.8-24.3 41.3-24.3 15.7 0 35.8 18.4 41.6 24.7 8.2 8.9 21 11.7 32.2 7.1l53.4-29.8c10.7-7.4 14.7-21.2 9.7-33.2-2.6-6.3-4.1-12.9-4.5-19.7 0-28.5 23-51.7 51.2-51.7h1.8c10.1 0 18-8.4 20.4-21.4 0-0.3 4.4-23.2 4.4-41.3-0.1-17.7-4.3-40.2-4.5-41.2zM751.6 797.7c-40.9 0-74.1-33.5-74.1-74.8s33.3-74.8 74.1-74.8 74.1 33.5 74.1 74.8-33.2 74.8-74.1 74.8z" p-id="2369" fill="#bfcbd9"></path></svg>