<?xml version="1.0" standalone="no"?><!DOCTYPE svg PUBLIC "-//W3C//DTD SVG 1.1//EN" "http://www.w3.org/Graphics/SVG/1.1/DTD/svg11.dtd"><svg t="1566292884343" class="icon" viewBox="0 0 1025 1024" version="1.1" xmlns="http://www.w3.org/2000/svg" p-id="10678" xmlns:xlink="http://www.w3.org/1999/xlink" width="16.015625" height="16"><defs><style type="text/css"></style></defs><path d="M774.122491 704.190459l-20.652032-20.652032 258.422782-258.418686c18.700288-18.69824 15.376384-52.355072-7.436288-75.163647L674.044923 19.546112c-22.812672-22.810624-56.467456-26.136576-75.165695-7.436288L340.460542 270.524414l-20.649984-20.649984c-22.81472-22.812672-56.938496-25.665536-76.222463-6.381568l-192.047103 192.045055c-12.969984 12.969984-15.910912 32.65536-9.51296 51.095552l-0.139264-0.14336 44.50304 265.259006-69.28384 69.285888c-22.810624 22.812672-22.810624 59.79136 0 82.601983l103.254015 103.251967c22.810624 22.81472 59.793408 22.81472 82.604031 0l69.28384-69.281792 265.261054 44.50304-0.147456-0.147456c18.440192 6.404096 38.12352 3.463168 51.0976-9.510912l192.043007-192.043007C799.790075 761.120763 796.931067 726.999035 774.122491 704.190459zM674.096123 294.461438c-7.99744 7.99744-20.965376 7.99744-28.964864 0l-57.925632-57.925632c-7.995392-7.999488-7.99744-20.965376 0-28.962816l43.444224-43.444224c7.99744-7.99744 20.963328-7.999488 28.964864 0l57.925632 57.925632c7.99744 7.99744 7.99744 20.963328 0 28.962816L674.096123 294.461438zM816.425978 436.789245c-7.99744 7.99744-20.967424 7.99744-28.964864 0l-57.92768-57.923584c-7.995392-7.999488-7.993344-20.965376 0-28.964864l43.44832-43.444224c7.99744-7.99744 20.963328-7.99744 28.962816 0l57.925632 57.925632c7.995392 7.99744 7.999488 20.965376 0 28.962816L816.425978 436.789245z" p-id="10679" fill="#bfcbd9"></path></svg>