<?xml version="1.0" standalone="no"?><!DOCTYPE svg PUBLIC "-//W3C//DTD SVG 1.1//EN" "http://www.w3.org/Graphics/SVG/1.1/DTD/svg11.dtd"><svg t="1566571282795" class="icon" viewBox="0 0 1024 1024" version="1.1" xmlns="http://www.w3.org/2000/svg" p-id="17738" xmlns:xlink="http://www.w3.org/1999/xlink" width="16" height="16"><defs><style type="text/css"></style></defs><path d="M711.937072 619.893662a48.943285 48.943285 0 0 0-29.898408-13.379196 98.159614 98.159614 0 0 1-61.230302-26.621871 90.58262 90.58262 0 0 1-27.031437-60.206383 45.052396 45.052396 0 0 0-13.515719-29.352319 47.100232 47.100232 0 0 0-66.008586 0l-29.011013 28.464923-300.485827-287.652721s-14.607898-11.945711-16.723996-22.799243c-2.457403-12.969629-4.641762-29.693625-18.70357-41.844119A1533.556249 1533.556249 0 0 0 54.172093 91.961496c-11.194838-7.781777-19.044876-6.143509-26.894915 1.638269l-20.478362 20.068795c-7.781777 7.645255-9.556569 15.29051-1.570008 26.348825 18.840093 26.144042 53.585047 68.261206 75.769939 93.38133 12.287017 13.925286 29.352318 15.8366 42.594992 18.362264 10.990054 2.116097 23.072288 16.382689 23.072288 16.38269L439.711383 563.236861l-29.011012 28.464923a45.257179 45.257179 0 0 0 0 64.916407c8.396128 8.191345 19.113138 12.833107 29.898408 13.379196 22.253153 1.023918 44.369784 9.966136 61.230301 26.485348 16.860518 16.519212 25.256646 38.431059 27.031438 60.069861a46.827187 46.827187 0 0 0 13.515719 29.420579l186.83092 183.622644a94.54177 94.54177 0 0 0 132.153694 0l37.202357-36.656267a90.787404 90.787404 0 0 0 0-129.901075L711.937072 619.893662z m259.87041-423.970349l-175.021732 94.473509-79.729088-47.5098 1.979575-91.470015L900.338 53.530438a217.753246 217.753246 0 0 0-295.024932 8.396128 208.87929 208.87929 0 0 0-59.592032 186.83092 48.67024 48.67024 0 0 1-14.266592 44.642829L409.608191 413.540037l51.059382 48.875023 0.341306-0.341306c16.587473-16.177906 38.635842-25.256646 62.117698-25.256646a87.579127 87.579127 0 0 1 80.753006 52.62939l59.250727-58.158548a52.288084 52.288084 0 0 1 49.28459-13.379196c68.329467 17.065301 143.621577-4.436978 197.138362-57.066368 45.87153-45.393702 66.691198-105.87313 62.25422-164.919073zM381.689358 563.441645l0.409567-0.341306-49.694157-49.967203-292.63579 287.379676c-37.543663 36.79279-37.543663 96.384823 0 133.177613 37.543663 36.861051 98.227875 36.861051 135.771539 0l234.272458-230.040264a87.237821 87.237821 0 0 1-27.71405-18.430525 84.780418 84.780418 0 0 1-0.409567-121.777991z" p-id="17739" fill="#bfcbd9"></path></svg>