<?xml version="1.0" standalone="no"?><!DOCTYPE svg PUBLIC "-//W3C//DTD SVG 1.1//EN" "http://www.w3.org/Graphics/SVG/1.1/DTD/svg11.dtd"><svg t="1566292536265" class="icon" viewBox="0 0 1024 1024" version="1.1" xmlns="http://www.w3.org/2000/svg" p-id="6341" xmlns:xlink="http://www.w3.org/1999/xlink" width="16" height="16"><defs><style type="text/css"></style></defs><path d="M512 115.2C265.6 115.2 67.2 320 67.2 569.6c0 92.8 28.8 182.4 80 259.2 12.8 16 35.2 22.4 51.2 9.6 16-12.8 19.2-35.2 9.6-51.2-44.8-64-67.2-137.6-67.2-217.6C140.8 361.6 307.2 188.8 512 188.8c204.8 0 371.2 169.6 371.2 380.8S716.8 950.4 512 950.4c-70.4 0-140.8-19.2-198.4-60.8-16-9.6-38.4-6.4-51.2 12.8-9.6 16-6.4 41.6 9.6 51.2 70.4 48 153.6 70.4 240 70.4 246.4 0 444.8-204.8 444.8-454.4S758.4 115.2 512 115.2zM435.2 96h150.4c19.2 0 32-12.8 32-32s-16-32-32-32h-150.4c-19.2 0-32 12.8-32 32s12.8 32 32 32z" p-id="6342" fill="#bfcbd9"></path><path d="M515.2 275.2h-9.6c-12.8 0-22.4 9.6-22.4 22.4V611.2c0 3.2 3.2 9.6 6.4 12.8l9.6 6.4c9.6 6.4 22.4 6.4 32-3.2l99.2-115.2c6.4-9.6 6.4-22.4-3.2-32l-9.6-6.4c-9.6-6.4-22.4-6.4-32 3.2l-48 54.4V297.6c0-12.8-9.6-22.4-22.4-22.4zM873.6 262.4c9.6 9.6 25.6 6.4 38.4-6.4 12.8-12.8 16-28.8 6.4-38.4l-73.6-73.6c-9.6-9.6-25.6-6.4-38.4 6.4-12.8 12.8-16 28.8-6.4 38.4l73.6 73.6z" p-id="6343" fill="#bfcbd9"></path></svg>