<?xml version="1.0" standalone="no"?><!DOCTYPE svg PUBLIC "-//W3C//DTD SVG 1.1//EN" "http://www.w3.org/Graphics/SVG/1.1/DTD/svg11.dtd"><svg t="1566571126707" class="icon" viewBox="0 0 1105 1024" version="1.1" xmlns="http://www.w3.org/2000/svg" p-id="16947" xmlns:xlink="http://www.w3.org/1999/xlink" width="17.265625" height="16"><defs><style type="text/css"></style></defs><path d="M1090.373752 238.033502l-87.56751-171.876838A121.266417 121.266417 0 0 0 894.665643 0.000062H211.068108a121.266417 121.266417 0 0 0-108.140599 66.156602L15.359999 238.033502c-48.655512 111.709084 23.396847 243.432713 144.725325 253.300348a188.478049 188.478049 0 0 0 171.535504-81.951025 39.315392 39.315392 0 0 1 65.163633 0 188.726292 188.726292 0 0 0 312.102769 0 39.315392 39.315392 0 0 1 65.163632 0 188.478049 188.478049 0 0 0 171.535505 81.951025c121.328477-9.836605 193.380837-141.715385 144.725324-253.300348z m-127.224235 330.845071a273.345923 273.345923 0 0 1-32.98521 2.048 267.512226 267.512226 0 0 1-163.746899-55.854542 40.339391 40.339391 0 0 0-49.865694 0 267.698408 267.698408 0 0 1-327.431738 0 40.339391 40.339391 0 0 0-49.865694 0 267.543257 267.543257 0 0 1-196.359745 53.868603 39.284361 39.284361 0 0 0-44.187149 39.036118V943.941823c0 44.218179 34.878058 80.058177 77.948116 80.058177h752.453773c43.039028 0 77.948116-35.839998 77.948117-80.058177V608.193965a39.253331 39.253331 0 0 0-43.845816-39.191271z m-163.87102 298.170164H306.393194a39.501573 39.501573 0 0 1 0-78.972117h492.916333a39.501573 39.501573 0 1 1 0 78.972117z m0 0" p-id="16948" fill="#bfcbd9"></path></svg>