<?xml version="1.0" standalone="no"?><!DOCTYPE svg PUBLIC "-//W3C//DTD SVG 1.1//EN" "http://www.w3.org/Graphics/SVG/1.1/DTD/svg11.dtd"><svg t="1566570153283" class="icon" viewBox="0 0 1024 1024" version="1.1" xmlns="http://www.w3.org/2000/svg" p-id="16135" xmlns:xlink="http://www.w3.org/1999/xlink" width="16" height="16"><defs><style type="text/css"></style></defs><path d="M498.087724 406.068966H411.542069v170.955034c0 15.536552-4.237241 27.542069-12.658759 35.945931-8.474483 8.474483-20.162207 12.729379-34.957241 12.729379-15.006897 0-26.765241-4.307862-35.257379-12.923586-8.403862-8.545103-12.641103-20.48-12.641104-35.751724V406.068966H229.517241v166.964965c0 13.771034 2.683586 29.572414 8.033104 47.386483 3.319172 11.087448 9.445517 21.857103 18.449655 32.29131a100.563862 100.563862 0 0 0 29.696 24.134621c10.840276 5.684966 24.346483 9.463172 40.465655 11.352276 16.101517 1.889103 30.984828 2.877793 44.632276 2.877793 23.534345 0 43.784828-3.142621 60.610207-9.339586 12.076138-4.484414 23.604966-12.182069 34.639448-23.216552a101.111172 101.111172 0 0 0 24.275862-38.629517 140.535172 140.535172 0 0 0 7.768276-46.856828V425.666207l98.480552 260.713931h93.837241L794.482759 406.068966h-87.887449l-62.252138 201.745655L581.172966 406.068966h-83.085242zM512 1024C229.234759 1024 0 794.765241 0 512S229.234759 0 512 0s512 229.234759 512 512-229.234759 512-512 512z" p-id="16136" fill="#bfcbd9"></path></svg>